<svg width="37" height="56" viewBox="0 0 37 56" fill="none" xmlns="http://www.w3.org/2000/svg">
<g opacity="0.82">
<mask id="path-1-outside-1_1032_2870" maskUnits="userSpaceOnUse" x="0" y="0" width="37" height="56" fill="black">
<rect fill="white" width="37" height="56"/>
<path d="M3.5425 53.968L14.2945 18L18.5185 34.128C13.5692 34.128 9.51583 32.72 6.3585 29.904C3.20117 27.0027 1.6225 23.0773 1.6225 18.128C1.6225 13.0933 3.20117 9.12533 6.3585 6.224C9.60117 3.23733 13.6545 1.744 18.5185 1.744C23.3825 1.744 27.3932 3.23733 30.5505 6.224C33.7932 9.12533 35.4145 13.0933 35.4145 18.128C35.4145 19.4933 35.2865 20.8587 35.0305 22.224C34.8598 23.5893 34.4332 25.2533 33.7505 27.216C33.0678 29.0933 31.9585 31.6533 30.4225 34.896L21.4625 53.968H3.5425Z"/>
</mask>
<path d="M3.5425 53.968L2.10534 53.5384L1.52851 55.468H3.5425V53.968ZM14.2945 18L15.7456 17.62L14.3899 12.4437L12.8573 17.5704L14.2945 18ZM18.5185 34.128V35.628H20.462L19.9696 33.748L18.5185 34.128ZM6.3585 29.904L5.34356 31.0085L5.35176 31.016L5.36008 31.0234L6.3585 29.904ZM6.3585 6.224L7.37344 7.32849L7.37471 7.32732L6.3585 6.224ZM30.5505 6.224L29.5197 7.3137L29.5348 7.328L29.5503 7.34186L30.5505 6.224ZM35.0305 22.224L33.5562 21.9476L33.5478 21.9925L33.5421 22.0379L35.0305 22.224ZM33.7505 27.216L35.1602 27.7286L35.1638 27.7187L35.1672 27.7088L33.7505 27.216ZM30.4225 34.896L29.0669 34.2539L29.0649 34.2582L30.4225 34.896ZM21.4625 53.968V55.468H22.4151L22.8201 54.6058L21.4625 53.968ZM3.5425 53.968L4.97966 54.3976L15.7317 18.4296L14.2945 18L12.8573 17.5704L2.10534 53.5384L3.5425 53.968ZM14.2945 18L12.8434 18.38L17.0674 34.508L18.5185 34.128L19.9696 33.748L15.7456 17.62L14.2945 18ZM18.5185 34.128V32.628C13.8711 32.628 10.1937 31.3146 7.35692 28.7846L6.3585 29.904L5.36008 31.0234C8.838 34.1254 13.2673 35.628 18.5185 35.628V34.128ZM6.3585 29.904L7.37344 28.7995C4.57397 26.227 3.1225 22.7286 3.1225 18.128H1.6225H0.1225C0.1225 23.426 1.82836 27.7783 5.34356 31.0085L6.3585 29.904ZM1.6225 18.128H3.1225C3.1225 13.4333 4.57951 9.89588 7.37344 7.32849L6.3585 6.224L5.34356 5.11951C1.82282 8.35478 0.1225 12.7534 0.1225 18.128H1.6225ZM6.3585 6.224L7.37471 7.32732C10.3109 4.62293 13.9888 3.244 18.5185 3.244V1.744V0.243996C13.3202 0.243996 8.89143 1.85173 5.34229 5.12068L6.3585 6.224ZM18.5185 1.744V3.244C23.0486 3.244 26.6749 4.62268 29.5197 7.3137L30.5505 6.224L31.5813 5.1343C28.1114 1.85198 23.7164 0.243996 18.5185 0.243996V1.744ZM30.5505 6.224L29.5503 7.34186C32.4237 9.91283 33.9145 13.4462 33.9145 18.128H35.4145H36.9145C36.9145 12.7405 35.1626 8.33783 31.5507 5.10614L30.5505 6.224ZM35.4145 18.128H33.9145C33.9145 19.399 33.7954 20.6718 33.5562 21.9476L35.0305 22.224L36.5048 22.5004C36.7776 21.0455 36.9145 19.5877 36.9145 18.128H35.4145ZM35.0305 22.224L33.5421 22.0379C33.3893 23.2603 32.9975 24.8151 32.3338 26.7232L33.7505 27.216L35.1672 27.7088C35.8689 25.6916 36.3304 23.9183 36.5189 22.4101L35.0305 22.224ZM33.7505 27.216L32.3408 26.7034C31.682 28.5152 30.5959 31.0259 29.0669 34.2539L30.4225 34.896L31.7781 35.5381C33.3211 32.2807 34.4537 29.6715 35.1602 27.7286L33.7505 27.216ZM30.4225 34.896L29.0649 34.2582L20.1049 53.3302L21.4625 53.968L22.8201 54.6058L31.7801 35.5338L30.4225 34.896ZM21.4625 53.968V52.468H3.5425V53.968V55.468H21.4625V53.968Z" fill="#FF7F00" mask="url(#path-1-outside-1_1032_2870)"/>
</g>
</svg>
